# AST/ASF file generated using VICON BodyLanguage
# -----------------------------------------------
:version 1.10
:name VICON
:units
  mass 1.0
  length 0.45
  angle deg
:documentation
   .ast/.asf automatically generated from VICON data using
   VICON BodyBuilder and BodyLanguage model FoxedUp or BRILLIANT.MOD
:root
   order TX TY TZ RX RY RZ
   axis XYZ
   position 0 0 0  
   orientation 0 0 0 
:bonedata
  begin
     id 1 
     name lhipjoint
     direction 0.543289 -0.788407 0.288535 
     length 2.57127 
     axis 0 0 0  XYZ
  end
  begin
     id 2 
     name lfemur
     direction 0.34202 -0.939693 0  
     length 8.47298  
     axis 0 0 20  XYZ
    dof rx ry rz
    limits (-160.0 20.0)
           (-70.0 70.0)
           (-60.0 70.0)
  end
  begin
     id 3 
     name ltibia
     direction 0.34202 -0.939693 0   
     length 8.13367   
     axis 0 0 20   XYZ
    dof rx
    limits (-10.0 170.0)
  end
  begin
     id 4 
     name lfoot
     direction 0.114037 -0.313314 0.942778   
     length 2.67113   
     axis -90 7.62852e-016 20   XYZ
    dof rx rz
    limits (-45.0 90.0)
           (-70.0 20.0)
  end
  begin
     id 5 
     name ltoes
     direction 1.536e-011 -4.21847e-011 1   
     length 1.32217   
     axis -90 7.62852e-016 20   XYZ
    dof rx
    limits (-90.0 20.0)
  end
  begin
     id 6 
     name rhipjoint
     direction -0.571293 -0.770752 0.282074   
     length 2.63017  
     axis 0 0 0  XYZ 
  end
  begin
     id 7 
     name rfemur
     direction -0.34202 -0.939693 0   
     length 8.60885   
     axis 0 0 -20   XYZ
    dof rx ry rz
    limits (-160.0 20.0)
           (-70.0 70.0)
           (-70.0 60.0)
  end
  begin
     id 8 
     name rtibia
     direction -0.34202 -0.939693 0   
     length 8.07673   
     axis 0 0 -20   XYZ
    dof rx
    limits (-10.0 170.0)
 end
 begin
     id 9 
     name rfoot
     direction -0.121336 -0.333368 0.934956   
     length 2.81602  
     axis -90 -7.62852e-016 -20   XYZ
    dof rx rz
    limits (-45.0 90.0)
           (-20.0 70.0)
  end
  begin
     id 10 
     name rtoes
     direction -1.53491e-011 -4.21808e-011 1   
     length 1.38905   
     axis -90 -7.62852e-016 -20   XYZ
    dof rx
    limits (-90.0 20.0)
  end
  begin
     id 11 
     name lowerback
     direction 0.0136776 0.999869 -0.00861835   
     length 2.14087   
     axis 0 0 0   XYZ
    dof rx ry rz
    limits (-20.0 45.0)
           (-30.0 30.0)
           (-30.0 30.0)
  end
  begin
     id 12 
     name upperback
     direction -0.00789158 0.999804 0.0181308   
     length 2.14151   
     axis 0 0 0   XYZ
    dof rx ry rz
    limits (-20.0 45.0)
           (-30.0 30.0)
           (-30.0 30.0)
  end
  begin
     id 13 
     name thorax
     direction -0.0135231 0.999666 0.0220247   
     length 2.13644   
     axis 0 0 0   XYZ
    dof rx ry rz
    limits (-20.0 45.0)
           (-30.0 30.0)
           (-30.0 30.0)
  end
  begin
     id 14 
     name lowerneck
     direction -0.0392259 0.997317 0.0618018   
     length 1.65045   
     axis 0 0 0   XYZ
    dof rx ry rz
    limits (-20.0 45.0)
           (-30.0 30.0)
           (-30.0 30.0)
  end
  begin
     id 15 
     name upperneck
     direction 0.0765547 0.994276 -0.0745319   
     length 1.66045   
     axis 0 0 0   XYZ
    dof rx ry rz
    limits (-20.0 45.0)
           (-30.0 30.0)
           (-30.0 30.0)
  end
  begin
     id 16
     name head
     direction 0.0241564 0.999031 -0.036785  
     length 1.66594  
     axis 0 0 0   XYZ
    dof rx ry rz
    limits (-20.0 45.0)
           (-30.0 30.0)
           (-30.0 30.0)
  end
  begin
     id 17 
     name lclavicle
     direction 0.967398 0.249018 0.0461573  
     length 3.75176  
     axis 0 0 0   XYZ
    dof ry rz
    limits (-20.0 10.0)
           (0.0 20.0)
  end
  begin
     id 18 
     name lhumerus
     direction 1 -4.48963e-011 -3.05005e-027   
     length 5.93342   
     axis 180 -30 -90   XYZ
    dof rx ry rz
    limits (-60.0 90.0)
           (-90.0 90.0)
           (-90.0 90.0)
  end
  begin
     id 19
     name lradius
     direction 1 -4.48957e-011 1.07006e-026   
     length 3.94763   
     axis 180 -30 -90   XYZ
    dof rx
    limits (-10.0 170.0)
  end
  begin
     id 20
     name lwrist
     direction 1 -4.48978e-011 1.92422e-026   
     length 1.97382   
     axis -1.18182e-014 90 90   XYZ
    dof ry
    limits (-180.0 0.0)
 end
  begin
     id 21 
     name lhand
     direction 1 -4.48931e-011 3.84844e-026   
     length 0.560187   
     axis -2.45563e-014 90 90   XYZ
    dof rx rz
    limits (-90.0 90.0)
           (-45.0 45.0)
  end
  begin
     id 22 
     name lfingers
     direction 1 -4.48952e-011 7.69687e-026   
     length 0.451637   
     axis -4.91126e-014 90 90   XYZ
    dof rx
    limits (0.0 90.0)
  end
  begin
     id 23
     name lthumb
     direction 0.707107 -6.34901e-011 0.707107   
     length 0.648463   
     axis -90 45 2.85299e-015   XYZ
    dof rx rz
    limits (-45.0 45.0)
           (-45.0 45.0)
  end
  begin
     id 24 
     name rclavicle
     direction -0.965946 0.258716 0.00371831   
     length 3.63667  
     axis 0 0 0   XYZ 
    dof ry rz
    limits (-10.0 20.0)
           (-20.0 0.0)
  end
  begin
     id 25 
     name rhumerus
     direction -1 -4.48966e-011 -1.78361e-028  
     length 6.28647   
     axis 180 30 90   XYZ
    dof rx ry rz
    limits (-90.0 60.0)
           (-90.0 90.0)
           (-90.0 90.0)
  end
  begin
     id 26 
     name rradius
     direction -1 -4.48961e-011 1.05248e-026   
     length 3.81645   
     axis 180 30 90   XYZ
    dof rx
    limits (-10.0 170.0)
  end
  begin
     id 27 
     name rwrist
     direction -1 -4.48979e-011 1.92422e-026   
     length 1.90822   
     axis -1.18182e-014 -90 -90   XYZ
    dof ry
    limits (-180.0 0.0)
  end
  begin
     id 28
     name rhand
     direction -1 -4.48937e-011 3.84844e-026   
     length 0.646185   
     axis -2.45563e-014 -90 -90   XYZ
    dof rx rz
    limits (-90.0 90.0)
           (-45.0 45.0)
  end
  begin
     id 29
     name rfingers
     direction -1 -4.48953e-011 7.69687e-026   
     length 0.520971   
     axis -4.91126e-014 -90 -90   XYZ
    dof rx
    limits (0.0 90.0)
  end
  begin
     id 30
     name rthumb
     direction -0.707107 -6.3494e-011 0.707107   
     length 0.748013   
     axis -90 -45 -2.85299e-015   XYZ
    dof rx rz
    limits (-45.0 45.0)
           (-45.0 45.0)
  end
:hierarchy
  begin
    root lhipjoint rhipjoint lowerback
    lhipjoint lfemur
    lfemur ltibia
    ltibia lfoot
    lfoot ltoes
    rhipjoint rfemur
    rfemur rtibia
    rtibia rfoot
    rfoot rtoes
    lowerback upperback
    upperback thorax
    thorax lowerneck lclavicle rclavicle
    lowerneck upperneck
    upperneck head
    lclavicle lhumerus
    lhumerus lradius
    lradius lwrist
    lwrist lhand lthumb
    lhand lfingers
    rclavicle rhumerus
    rhumerus rradius
    rradius rwrist
    rwrist rhand rthumb
    rhand rfingers
  end

#!OML:ASF H:\HAZMAT1\Patient Classification 1\Patient 3\Session 1\dancer.ASF
:FULLY-SPECIFIED
:DEGREES
61
upperback 3.963820 -2.181720 -3.439790
rfoot 5.205190 -17.721701
lradius 19.439199
lthumb 10.648900 57.807201
rradius 40.323700
lwrist -12.103800
rhand 1.375360 -10.716900
rhumerus -17.500601 -1.747640 -5.687190
lowerneck -7.012620 -3.065680 0.232510
lhand -15.534800 28.097099
ltibia 92.539703
head 9.344800 -1.928550 1.358320
rwrist -17.591499
lfingers 7.125020
rtoes -12.606700
lowerback 0.283774 -1.678450 3.823840
rfingers 7.125020
lclavicle -0.000000 0.000000
upperneck 25.569201 -5.555140 5.656700
rfemur -23.602100 -19.596500 20.826900
thorax 3.664900 -0.891081 -5.784090
rclavicle -0.000000 0.000000
rtibia 45.864899
lfoot 11.052900 11.076100
lhumerus -54.269199 25.727900 -4.211320
rthumb 26.907101 -38.821602
root 8.682740 19.682800 32.024200 355.890015 33.454201 348.795013
ltoes 32.220501
lfemur -46.127800 10.777300 -9.329130
62
upperback 2.670100 0.436959 -2.095530
rfoot -38.219799 -14.403700
lradius 18.320601
lthumb 9.505060 59.317101
rradius 35.631001
lwrist -14.338100
rhand -12.441100 -17.681299
rhumerus -31.693701 -7.352950 -14.334100
lowerneck -5.363360 -0.580683 2.685870
lhand -16.720501 29.551500
ltibia 45.255600
head 7.533680 -0.371241 0.476056
rwrist -9.525430
lfingers 7.125020
rtoes 4.497180
lowerback 0.222588 0.380481 9.231540
rfingers 7.125020
lclavicle 0.000000 0.000000
upperneck 21.621201 -1.825330 3.285620
rfemur -12.453800 -10.677000 35.152802
thorax 2.758830 0.465782 -7.390660
rclavicle 0.000000 0.000000
rtibia 52.479500
lfoot 8.620900 11.279600
lhumerus -55.191700 23.098700 3.278170
rthumb 13.631900 -47.215000
root 6.575760 17.542900 36.831799 359.295990 2.269180 349.088989
ltoes 16.751101
lfemur -52.211201 3.776050 -19.156700
63
upperback 0.355546 0.828593 -3.350790
rfoot -18.793200 1.441370
lradius 22.797199
lthumb 2.139410 61.310398
rradius 26.811899
lwrist -7.709110
rhand -23.726601 -26.559099
rhumerus -56.939602 -9.465350 -26.764700
lowerneck -3.807260 1.446050 3.116190
lhand -24.349899 31.341400
ltibia 35.250999
head 5.739130 0.947989 0.154385
rwrist 2.181020
lfingers 7.125020
rtoes -26.019300
lowerback -2.327410 0.719248 6.399270
rfingers 7.125020
lclavicle -0.000000 0.000000
upperneck 16.893101 1.325700 1.890040
rfemur 3.021540 -2.641520 27.648701
thorax 1.819910 0.499257 -7.073040
rclavicle -0.000000 0.000000
rtibia 50.106201
lfoot 2.773940 29.723400
lhumerus -40.839802 20.462200 16.579000
rthumb 2.741410 -56.521198
root 4.686880 18.013500 42.014000 362.260010 -14.530500 354.364014
ltoes 28.696199
lfemur -43.278198 -13.378700 -15.354300
64
upperback -0.309493 -3.544770 -2.705810
rfoot -23.960899 -12.734300
lradius 27.082800
lthumb 1.766690 60.736801
rradius 23.056499
lwrist -5.204040
rhand -21.772900 -25.398001
rhumerus -68.387703 -18.570700 -45.042198
lowerneck -3.662170 4.472170 5.142930
lhand -24.735800 30.764400
ltibia 37.125999
head 3.682870 2.960010 -1.709360
rwrist 11.332100
lfingers 7.125020
rtoes -9.355140
lowerback 0.954104 -2.689840 5.819170
rfingers 7.125020
lclavicle 0.000000 0.000000
upperneck 8.428350 5.907590 -3.221590
rfemur -24.565001 2.058140 18.063101
thorax -1.382220 -1.836610 -5.983410
rclavicle 0.000000 0.000000
rtibia 62.877899
lfoot -10.957300 23.580999
lhumerus -24.731501 16.551901 43.078098
rthumb 4.628060 -55.327400
root 3.296080 18.963100 45.529701 365.415985 -19.042500 357.580994
ltoes 22.821899
lfemur -33.845100 -12.263200 -18.214300
